<svg xmlns="http://www.w3.org/2000/svg" width="22" height="22" viewBox="0 0 22 22">
  <g id="Users_Natural-Close-Up-Single-User-Neutral_single-neutral" data-name="Users / Natural-Close-Up-Single-User-Neutral / single-neutral" transform="translate(0 -3981)">
    <g id="Group_586" transform="translate(0 3981)">
      <g id="Bold_586">
        <path id="Shape_2734" d="M21.035,3998.428c-.673-1.406-2.971-2.286-6.151-3.511-.6-.229-.986-.325-1.157-.832a1.7,1.7,0,0,1,.142-1.521c1.26-1.425,1.879-3.558,1.879-6.3,0-3.634-2.383-5.26-4.748-5.26s-4.748,1.626-4.748,5.26c0,2.746.619,4.879,1.879,6.3a1.7,1.7,0,0,1,.142,1.521c-.171.507-.55.6-1.157.832-3.18,1.225-5.478,2.1-6.151,3.511A10.5,10.5,0,0,0,0,4002.522a.466.466,0,0,0,.458.479H21.542a.466.466,0,0,0,.458-.479A10.5,10.5,0,0,0,21.035,3998.428Z" transform="translate(0 -3981)" fill="#7280aa"/>
      </g>
    </g>
  </g>
</svg>
