<?xml version="1.0" encoding="UTF-8"?> <svg xmlns="http://www.w3.org/2000/svg" width="150" height="48" viewBox="0 0 150 48" fill="none"> <path d="M17.235 12.7447H21.2562V7C21.2562 7 17.03 7 16.9275 7.00454C7.558 7.17598 0 14.8238 0 24.235C0 33.7478 7.72309 41.4609 17.235 41.47H21.2562V35.7244H17.235C15.49 35.7177 13.7693 35.314 12.2034 34.5439C10.6374 33.7738 9.2672 32.6575 8.19651 31.2795C7.12583 29.9015 6.38272 28.298 6.02347 26.5903C5.66422 24.8826 5.69824 23.1156 6.12296 21.423C6.77109 23.8757 8.21251 26.045 10.2225 27.5928C12.2325 29.1405 14.6981 29.9798 17.235 29.9797H21.2562V24.235H17.235C14.0846 24.235 11.5202 21.6407 11.5202 18.4903C11.5202 15.3399 14.0846 12.7447 17.235 12.7447Z" fill="white"></path> <path d="M30 27.0939V20.9025C30 16.5193 32.6049 14 37.417 14C39.4583 14 41.1515 14.5746 42.4682 15.6985C43.7849 16.8223 44.4562 18.4918 44.4562 20.7685V21.0425H40.2646V20.7685C40.2646 18.796 38.8947 17.8918 37.1482 17.8918C35.1598 17.8918 34.1655 18.796 34.1655 20.6043V27.3981C34.1655 29.2064 35.1598 30.1106 37.1482 30.1106C38.948 30.1106 40.2646 29.2885 40.2646 27.2339V26.9599H44.4562V27.2339C44.4562 29.507 43.7849 31.2055 42.4682 32.3293C41.1515 33.4532 39.4583 34 37.417 34C32.6049 33.9976 30 31.4831 30 27.0939Z" fill="white"></path> <path d="M46.8741 24.163C46.8741 21.0123 49.1048 18.8515 53.0809 18.8515C57.057 18.8515 59.2617 21.0159 59.2617 24.163V28.5739C59.2617 31.7233 57.0582 33.9155 53.0809 33.9155C49.1037 33.9155 46.8741 31.7245 46.8741 28.5739V24.163ZM55.4455 28.4363V24.3609C55.4455 23.1828 54.5859 22.3607 53.0774 22.3607C51.4919 22.3607 50.6856 23.2371 50.6856 24.3609V28.4423C50.6856 29.5662 51.4919 30.4148 53.0774 30.4148C54.5859 30.4087 55.4455 29.5601 55.4455 28.4363Z" fill="white"></path> <path d="M62.2432 33.5871V19.1774H66.0594V33.5871H62.2432Z" fill="white"></path> <path d="M69.6661 33.5871V19.1774H71.8424L72.8903 20.5198C73.4329 19.9777 74.0757 19.5507 74.7814 19.2637C75.4871 18.9767 76.2417 18.8354 77.0013 18.8479C80.0917 18.8479 81.9188 20.958 81.9188 24.4647V33.5871H78.0978V24.6832C78.0978 23.1489 77.2914 22.3546 76.1358 22.3546C75.1412 22.3546 74.2543 22.8206 73.4752 23.7248V33.5871H69.6661Z" fill="white"></path> <path d="M86.2655 32.4367C85.137 31.4493 84.5462 30.1902 84.519 28.6282H88.2275C88.4643 29.8607 89.4364 30.4642 91.1568 30.4642C92.3125 30.4642 93.0111 30.0804 93.0111 29.4502C93.0111 28.93 92.6073 28.5739 91.7749 28.3542L88.308 27.45C86.0239 26.8464 84.8683 25.5596 84.8683 23.5606C84.8683 20.6296 86.9641 18.8527 90.592 18.8527C94.059 18.8527 96.394 20.7986 96.5041 23.866H92.8228C92.5268 22.8254 91.6944 22.3051 90.3505 22.3051C89.1664 22.3051 88.5744 22.6613 88.5744 23.3457C88.5744 23.7296 88.9509 24.0314 89.7028 24.2221L93.4113 25.1818C95.6149 25.7564 96.716 27.0987 96.716 29.1533C96.716 32.1398 94.432 33.9203 90.8052 33.9203C88.9261 33.9155 87.427 33.4217 86.2655 32.4367Z" fill="white"></path> <path d="M99.8597 33.5871V14.4104H108.297C111.656 14.4104 113.672 16.739 113.672 20.4377C113.672 24.1364 111.659 26.4372 108.297 26.4372H104.028V33.5871H99.8597ZM104.025 22.7385H107.518C108.566 22.7385 109.453 21.972 109.453 20.4377C109.453 18.9034 108.566 18.1091 107.518 18.1091H104.028L104.025 22.7385Z" fill="white"></path> <path d="M124.933 33.5871L123.886 32.2447C122.73 33.3674 121.305 33.9154 119.612 33.9154C118.269 33.9154 117.141 33.5316 116.227 32.7928C115.313 32.025 114.856 30.9563 114.857 29.5866C114.857 26.6014 116.765 24.9029 120.554 24.9029H123.321V24.1086C123.321 22.9304 122.649 22.3546 121.278 22.3546C119.907 22.3546 119.237 22.8206 119.237 23.779H115.501C115.501 20.7938 117.49 18.8479 121.278 18.8479C125.066 18.8479 127.137 20.7938 127.137 23.8346V33.5871H124.933ZM123.321 29.2305V27.6419H120.554C119.29 27.6419 118.672 28.1079 118.672 29.0663C118.672 29.9113 119.264 30.4908 120.419 30.4908C121.601 30.4908 122.569 30.0803 123.321 29.2305Z" fill="white"></path> <path d="M130.603 33.5871V19.1774H134.419V33.5871H130.603Z" fill="white"></path> <path d="M147.827 33.5871L146.779 32.2448C146.23 32.7877 145.582 33.2148 144.871 33.5015C144.159 33.7882 143.4 33.9289 142.635 33.9154C139.733 33.9154 137.61 32.1047 137.61 28.6282V24.1086C137.61 22.3824 138.094 21.0678 139.031 20.1902C139.971 19.2873 141.18 18.8479 142.632 18.8479C144.083 18.8479 145.265 19.2317 146.184 20.026V14.274H150V33.5883L147.827 33.5871ZM146.187 29.0386V23.7271C145.3 22.823 144.36 22.357 143.42 22.357C143.156 22.3547 142.895 22.4064 142.651 22.509C142.407 22.6117 142.186 22.7631 142 22.9545C141.815 23.1459 141.669 23.3732 141.572 23.6231C141.474 23.873 141.427 24.1403 141.432 24.4092V28.3541C141.426 28.6231 141.474 28.8905 141.571 29.1404C141.669 29.3904 141.815 29.6178 142 29.8092C142.186 30.0006 142.407 30.1521 142.651 30.2546C142.895 30.3572 143.156 30.4088 143.42 30.4063C144.36 30.4087 145.3 29.9427 146.187 29.0386Z" fill="white"></path> </svg> 