<svg xmlns="http://www.w3.org/2000/svg" width="24" height="24" viewBox="0 0 24 24">
  <g id="Interface-Essential_Home_house-entrance" data-name="Interface-Essential / Home / house-entrance" transform="translate(-275 -117)">
    <g id="Group_13">
      <g id="house-entrance">
        <path id="Shape_15" d="M299,126.5a1,1,0,0,0-.389-.791l-11-8.5a1,1,0,0,0-1.224,0l-11,8.5a1,1,0,0,0-.387.791V140a1,1,0,0,0,1,1h8a.5.5,0,0,0,.5-.5V136a2.5,2.5,0,0,1,5,0v4.5a.5.5,0,0,0,.5.5h8a1,1,0,0,0,1-1Z" fill="#e6e9f1"/>
      </g>
    </g>
  </g>
</svg>
