<svg xmlns="http://www.w3.org/2000/svg" width="9" height="18" viewBox="0 0 9 18">
  <g id="Group_384" data-name="Group 384" transform="translate(-1489 -618)">
    <path id="np_arrow_1920908_000000" d="M2.5,22.058a.854.854,0,0,1,.275-.617,1.017,1.017,0,0,1,1.345,0L7,24.075l2.879-2.642a1.017,1.017,0,0,1,1.345,0,.826.826,0,0,1,0,1.234L7.67,25.927A.982.982,0,0,1,7,26.179a1.028,1.028,0,0,1-.673-.252L2.773,22.676a.868.868,0,0,1-.275-.617Z" transform="translate(1486.501 609.821)" fill="#4d5a7d"/>
    <path id="np_arrow_1920908_000000-2" data-name="np_arrow_1920908_000000" d="M2.5,25.3a.854.854,0,0,0,.275.617,1.017,1.017,0,0,0,1.345,0L7,23.282l2.879,2.642a1.017,1.017,0,0,0,1.345,0,.826.826,0,0,0,0-1.234L7.67,21.431A.982.982,0,0,0,7,21.179a1.028,1.028,0,0,0-.673.252L2.773,24.682A.868.868,0,0,0,2.5,25.3Z" transform="translate(1486.501 596.821)" fill="#4d5a7d"/>
  </g>
</svg>
