<svg id="refresh" xmlns="http://www.w3.org/2000/svg" width="20" height="20" viewBox="0 0 20 20">
  <path id="Path_209" data-name="Path 209" d="M2.4,10.854a7.813,7.813,0,0,1-.058-.916,7.636,7.636,0,0,1,12.8-5.6l-.676.683a.593.593,0,0,0-.152.582.612.612,0,0,0,.445.4c.118.024,3.994,1.264,3.747,1.215a.591.591,0,0,0,.692-.687c-.024-.117-.882-4.395-.832-4.15a.582.582,0,0,0-.985-.291l-.574.559A10.023,10.023,0,0,0,0,9.938v.023c0,.328.015.582.033.776a.584.584,0,0,0,.469.519l1.2.239a.585.585,0,0,0,.7-.641Zm0,0" transform="translate(0.001 0)" fill="#8f9ec8"/>
  <path id="Path_210" data-name="Path 210" d="M39.153,215.678l-1.208-.244a.585.585,0,0,0-.7.641,7.877,7.877,0,0,1,.06.922,7.627,7.627,0,0,1-12.8,5.59l.676-.672a.593.593,0,0,0,.152-.582.612.612,0,0,0-.445-.4c-.118-.024-3.994-1.264-3.747-1.215a.592.592,0,0,0-.692.687l.832,4.111a.585.585,0,0,0,.41.442.565.565,0,0,0,.574-.151l.563-.559A10,10,0,0,0,39.651,217v-.035c0-.258-.009-.511-.031-.763a.583.583,0,0,0-.467-.52Zm0,0" transform="translate(-19.651 -206.934)" fill="#8f9ec8"/>
</svg>
