<svg xmlns="http://www.w3.org/2000/svg" width="18" height="18" viewBox="0 0 18 18">
  <g id="Interface-Essential_Home_house-entrance" data-name="Interface-Essential / Home / house-entrance" transform="translate(-275 -117)">
    <g id="Group_13" transform="translate(275 117)">
      <g id="house-entrance">
        <path id="Shape_15" d="M293,124.125a.749.749,0,0,0-.292-.593l-8.25-6.375a.75.75,0,0,0-.918,0l-8.25,6.375a.752.752,0,0,0-.29.593V134.25a.75.75,0,0,0,.75.75h6a.375.375,0,0,0,.375-.375V131.25a1.875,1.875,0,1,1,3.75,0v3.375a.375.375,0,0,0,.375.375h6a.75.75,0,0,0,.75-.75Z" transform="translate(-275 -117)" fill="#b0bbd4"/>
      </g>
    </g>
  </g>
</svg>
