<svg xmlns="http://www.w3.org/2000/svg" width="22.737" height="17.995" viewBox="0 0 22.737 17.995">
  <g id="Money-Payments-Finance_Money_money-atm" data-name="Money-Payments-Finance / Money / money-atm" transform="translate(-48 -174.25)">
    <g id="Group_22" transform="translate(48 174.25)">
      <g id="money-atm">
        <path id="Shape_66" d="M69.316,174.25H49.421A1.421,1.421,0,0,0,48,175.671v5.211a1.421,1.421,0,0,0,1.421,1.421h2.106a.236.236,0,0,0,.228-.174c.267-.978.568-1.921.907-2.821a.237.237,0,0,0-.222-.32H51.316a.947.947,0,0,1,0-1.895H67.421a.947.947,0,0,1,0,1.895h-1.13a.237.237,0,0,0-.222.32c.337.9.639,1.844.907,2.821a.236.236,0,0,0,.228.174h2.112a1.421,1.421,0,0,0,1.421-1.421v-5.211A1.421,1.421,0,0,0,69.316,174.25Z" transform="translate(-48 -174.25)" fill="#b0bbd4"/>
        <path id="Union_1" data-name="Union 1" d="M19700.473,10641.261a.472.472,0,0,1-.475-.475,36.98,36.98,0,0,1,2.311-12.636.231.231,0,0,1,.217-.148h9.154a.233.233,0,0,1,.217.148,37.074,37.074,0,0,1,2.311,12.636.472.472,0,0,1-.475.475Z" transform="translate(-19695.736 -10623.266)" fill="#b0bbd4"/>
      </g>
    </g>
  </g>
</svg>
