<svg xmlns="http://www.w3.org/2000/svg" width="22" height="15.995" viewBox="0 0 22 15.995">
  <g id="Money-Payments-Finance_Money_accounting-bills" data-name="Money-Payments-Finance / Money / accounting-bills" transform="translate(-192.375 -127.875)">
    <g id="Group_15" transform="translate(192.375 127.875)">
      <g id="accounting-bills">
        <path id="Shape_45" d="M210.892,128.193a1.081,1.081,0,0,1,.284.748v10.664a1.081,1.081,0,0,1-.284.748.985.985,0,0,1-.706.318H193.365a.985.985,0,0,1-.706-.318,1.081,1.081,0,0,1-.284-.748V128.941a1.081,1.081,0,0,1,.284-.748.985.985,0,0,1,.706-.318h16.821A.985.985,0,0,1,210.892,128.193Zm-11.937,6.08a2.889,2.889,0,0,0,2.82,2.953,2.754,2.754,0,0,0,1.994-.865,3.021,3.021,0,0,0,.826-2.088,2.823,2.823,0,1,0-5.64,0Z" transform="translate(-192.375 -127.875)" fill="#b0bbd4" fill-rule="evenodd"/>
        <path id="Shape_46" d="M213.712,130.625a.723.723,0,0,0-.706.738v10.827a.241.241,0,0,1-.235.246h-16.94a.739.739,0,0,0,0,1.476h16.94a1.688,1.688,0,0,0,1.647-1.723V131.363A.723.723,0,0,0,213.712,130.625Z" transform="translate(-192.418 -127.918)" fill="#b0bbd4"/>
      </g>
    </g>
  </g>
</svg>
