<svg xmlns="http://www.w3.org/2000/svg" width="19" height="17" viewBox="0 0 19 17">
  <g id="Interface-Essential_View_view-off" data-name="Interface-Essential / View / view-off" transform="translate(-419.247 -3570.238)">
    <g id="Group_399" transform="translate(419.247 3570.238)">
      <g id="view-off">
        <path id="Shape_1098" d="M434.583,3574.752a16.72,16.72,0,0,1,3.471,2.845,1.691,1.691,0,0,1,.006,2.292c-2.068,2.221-5.485,4.584-8.92,4.584H428.9a9.377,9.377,0,0,1-3.479-.743L422.071,3587a.821.821,0,0,1-1.018.1.781.781,0,0,1-.3-.956c0-.008.007-.008.011-.008s.006-.008.01-.008l15.741-15.413a.561.561,0,0,0,.14-.229l.015-.016a.821.821,0,0,1,.785-.213.793.793,0,0,1,.577.561.776.776,0,0,1-.22.767Zm-4.51,7.39a3.673,3.673,0,0,0,2.422-2.4,3.329,3.329,0,0,0-.162-2.418.205.205,0,0,0-.15-.111.211.211,0,0,0-.178.055l-4.488,4.4a.2.2,0,0,0-.057.174.212.212,0,0,0,.112.15A3.549,3.549,0,0,0,430.073,3582.143Z" transform="translate(-419.504 -3570.237)" fill="#8594c1" fill-rule="evenodd"/>
        <path id="Shape_1099" d="M425.306,3580.863a.2.2,0,0,0,.05-.2,3.6,3.6,0,0,1-.145-.954,3.7,3.7,0,0,1,3.7-3.7,3.429,3.429,0,0,1,.954.14.2.2,0,0,0,.2-.049l1.6-1.6a.21.21,0,0,0,.056-.2.205.205,0,0,0-.138-.148,8.375,8.375,0,0,0-2.665-.411c-3.536-.049-7.072,2.426-9.2,4.77a1.768,1.768,0,0,0-.006,2.385,17.349,17.349,0,0,0,2.827,2.492.207.207,0,0,0,.268-.024Z" transform="translate(-419.247 -3571.109)" fill="#8594c1"/>
      </g>
    </g>
  </g>
</svg>
