<svg xmlns="http://www.w3.org/2000/svg" width="23" height="21" viewBox="0 0 23 21">
  <g id="Group_524" data-name="Group 524" transform="translate(-8.222 -9.485)">
    <path id="Path_403" data-name="Path 403" d="M118.159,108.3a1.533,1.533,0,1,0-1.533-1.533,1.533,1.533,0,0,0,1.533,1.533" transform="translate(-100.264 -89.912)" fill="#94a3c7" opacity="0.997"/>
    <path id="Path_404" data-name="Path 404" d="M147.9,106.77a1.533,1.533,0,1,0,1.533-1.533,1.533,1.533,0,0,0-1.533,1.533" transform="translate(-127.841 -89.912)" fill="#94a3c7" opacity="0.997"/>
    <path id="Path_405" data-name="Path 405" d="M138.128,86.009a.974.974,0,1,0-.974-.974.974.974,0,0,0,.974.974" transform="translate(-118.373 -71.202)" fill="#94a3c7" opacity="0.997"/>
    <path id="Path_406" data-name="Path 406" d="M140.668,56.384a.64.64,0,1,0-.64-.64.64.64,0,0,0,.64.64" transform="translate(-120.913 -45.62)" fill="#94a3c7" opacity="0.997"/>
    <path id="Path_407" data-name="Path 407" d="M67.3,98.831a.64.64,0,1,0-.64-.64.64.64,0,0,0,.64.64" transform="translate(-56.239 -83.122)" fill="#94a3c7" opacity="0.997"/>
    <path id="Path_408" data-name="Path 408" d="M213.826,97.552a.64.64,0,1,0,.64.64.64.64,0,0,0-.64-.64" transform="translate(-185.404 -83.122)" fill="#94a3c7" opacity="0.997"/>
    <path id="Path_409" data-name="Path 409" d="M67.3,182.321a.64.64,0,1,0,.64.64.64.64,0,0,0-.64-.64" transform="translate(-56.239 -158.017)" fill="#94a3c7" opacity="0.997"/>
    <path id="Path_410" data-name="Path 410" d="M213.826,182.321a.64.64,0,1,0,.64.64.64.64,0,0,0-.64-.64" transform="translate(-185.404 -158.017)" fill="#94a3c7" opacity="0.997"/>
    <path id="Path_411" data-name="Path 411" d="M140.668,224.4a.64.64,0,1,0,.64.64.64.64,0,0,0-.64-.64" transform="translate(-120.913 -195.192)" fill="#94a3c7" opacity="0.997"/>
    <path id="Path_412" data-name="Path 412" d="M105.226,80.326a.8.8,0,1,0-.8-.8.8.8,0,0,0,.8.8" transform="translate(-89.515 -66.494)" fill="#94a3c7" opacity="0.997"/>
    <path id="Path_413" data-name="Path 413" d="M94.376,61.664a.535.535,0,1,0-.535-.535.535.535,0,0,0,.535.535" transform="translate(-80.18 -50.471)" fill="#94a3c7" opacity="0.997"/>
    <path id="Path_414" data-name="Path 414" d="M188.071,61.664a.535.535,0,1,0-.535-.535.535.535,0,0,0,.535.535" transform="translate(-162.814 -50.471)" fill="#94a3c7" opacity="0.997"/>
    <path id="Path_415" data-name="Path 415" d="M94.376,221.081a.535.535,0,1,0,.535.535.535.535,0,0,0-.535-.535" transform="translate(-80.18 -192.262)" fill="#94a3c7" opacity="0.997"/>
    <path id="Path_416" data-name="Path 416" d="M188.071,221.081a.535.535,0,1,0,.535.535.535.535,0,0,0-.535-.535" transform="translate(-162.814 -192.262)" fill="#94a3c7" opacity="0.997"/>
    <path id="Path_417" data-name="Path 417" d="M234.074,140.838a.535.535,0,1,0,.535.535.535.535,0,0,0-.535-.535" transform="translate(-203.386 -121.366)" fill="#94a3c7" opacity="0.997"/>
    <path id="Path_418" data-name="Path 418" d="M48.3,140.838a.535.535,0,1,0,.535.535.535.535,0,0,0-.535-.535" transform="translate(-39.545 -121.366)" fill="#94a3c7" opacity="0.997"/>
    <path id="Path_419" data-name="Path 419" d="M173.475,80.326a.8.8,0,1,0-.8-.8.8.8,0,0,0,.8.8" transform="translate(-149.704 -66.494)" fill="#94a3c7" opacity="0.997"/>
    <path id="Path_420" data-name="Path 420" d="M105.226,198.429a.8.8,0,1,0,.8.8.8.8,0,0,0-.8-.8" transform="translate(-89.515 -172.248)" fill="#94a3c7" opacity="0.997"/>
    <path id="Path_421" data-name="Path 421" d="M70.758,138.58a.8.8,0,1,0,.8.8.8.8,0,0,0-.8-.8" transform="translate(-59.153 -119.371)" fill="#94a3c7" opacity="0.997"/>
    <path id="Path_422" data-name="Path 422" d="M208.779,139.378a.8.8,0,1,0-.8.8.8.8,0,0,0,.8-.8" transform="translate(-180.101 -119.371)" fill="#94a3c7" opacity="0.997"/>
    <path id="Path_423" data-name="Path 423" d="M173.475,198.429a.8.8,0,1,0,.8.8.8.8,0,0,0-.8-.8" transform="translate(-149.704 -172.248)" fill="#94a3c7" opacity="0.997"/>
    <path id="Path_424" data-name="Path 424" d="M92.025,112.772a.974.974,0,1,0-.974-.974.974.974,0,0,0,.974.974" transform="translate(-77.716 -94.847)" fill="#94a3c7" opacity="0.997"/>
    <path id="Path_425" data-name="Path 425" d="M93,164.89a.974.974,0,1,0-.974.974A.974.974,0,0,0,93,164.89" transform="translate(-77.715 -141.756)" fill="#94a3c7" opacity="0.997"/>
    <path id="Path_426" data-name="Path 426" d="M183.84,110.824a.974.974,0,1,0,.974.974.974.974,0,0,0-.974-.974" transform="translate(-158.686 -94.848)" fill="#94a3c7" opacity="0.997"/>
    <path id="Path_427" data-name="Path 427" d="M183.84,163.916a.974.974,0,1,0,.974.974.974.974,0,0,0-.974-.974" transform="translate(-158.686 -141.756)" fill="#94a3c7" opacity="0.997"/>
    <path id="Path_428" data-name="Path 428" d="M138.128,190.244a.974.974,0,1,0,.974.974.974.974,0,0,0-.974-.974" transform="translate(-118.373 -165.017)" fill="#94a3c7" opacity="0.997"/>
    <path id="Path_429" data-name="Path 429" d="M119.69,160.657a1.533,1.533,0,1,0-1.533,1.533,1.533,1.533,0,0,0,1.533-1.533" transform="translate(-100.263 -137.522)" fill="#94a3c7" opacity="0.997"/>
    <path id="Path_430" data-name="Path 430" d="M149.433,159.124a1.533,1.533,0,1,0,1.533,1.533,1.533,1.533,0,0,0-1.533-1.533" transform="translate(-127.841 -137.522)" fill="#94a3c7" opacity="0.997"/>
    <path id="Path_431" data-name="Path 431" d="M163.465,133.8A1.533,1.533,0,1,0,165,132.269a1.533,1.533,0,0,0-1.533,1.533" transform="translate(-141.566 -113.795)" fill="#94a3c7" opacity="0.997"/>
    <path id="Path_432" data-name="Path 432" d="M100.768,133.8a1.533,1.533,0,1,0,1.533-1.533,1.533,1.533,0,0,0-1.533,1.533" transform="translate(-86.28 -113.795)" fill="#94a3c7" opacity="0.997"/>
  </g>
</svg>
