<svg xmlns="http://www.w3.org/2000/svg" width="16" height="22" viewBox="0 0 16 22">
  <path id="Path_496" data-name="Path 496" d="M82.623,66.333a6.373,6.373,0,0,1,.711.46,3.077,3.077,0,0,1,1.245,2.881,5.527,5.527,0,0,1-.873,2.5A3.457,3.457,0,0,1,81.3,73.7a8.3,8.3,0,0,1-2.708-.049c-.213-.032-.775-.147-.775-.147l-.758,3.174-1.846-.467.762-3.129-1.468-.4-.749,3.146L71.93,75.34l.775-3.15-3.722-.982.918-2.176s.937.259,1.325.346a.675.675,0,0,0,.884-.586q.987-4.113,1.976-8.226a.986.986,0,0,0-.686-1.284c-.3-.1-1.453-.382-1.453-.382l.5-2.029,3.689.943.756-3.131,1.829.479-.748,3.076,1.483.354.723-3.064,1.848.484-.788,3.112a7.706,7.706,0,0,1,2.407,1.248,3.068,3.068,0,0,1,1.275,1.964,3.607,3.607,0,0,1-1.057,3.377,3.748,3.748,0,0,1-1.246.621m-4.176,4.7a3.949,3.949,0,0,0,1.146-.149,1.8,1.8,0,0,0,.727-2.946,3.8,3.8,0,0,0-.971-.71A19,19,0,0,0,76.118,66.2L75.1,70.4a17.2,17.2,0,0,0,3.351.629m.9-6.231a2.88,2.88,0,0,0,.98-.159,1.7,1.7,0,0,0,.715-2.6A2.894,2.894,0,0,0,79.91,61.2a17.262,17.262,0,0,0-2.416-.728l-.913,3.81a16.382,16.382,0,0,0,2.771.515" transform="translate(-68.983 -54.682)" fill="#93a2c6"/>
</svg>
