<svg xmlns="http://www.w3.org/2000/svg" width="18.705" height="20" viewBox="0 0 18.705 20">
  <g id="Group_522" data-name="Group 522" transform="translate(-10.982 -9.485)">
    <rect id="Rectangle_1550" data-name="Rectangle 1550" width="10.664" height="2.826" transform="translate(10.982 17.78)" fill="#94a3c7" opacity="0.997"/>
    <path id="Path_398" data-name="Path 398" d="M96.335,60.393A7.692,7.692,0,0,0,92.7,56.074a8.613,8.613,0,0,0-4.079-.962c-1.46-.007-3.434-.008-4.947-.007h-3.44v20h8.159a9.86,9.86,0,0,0,2.7-.333,7.582,7.582,0,0,0,5.24-4.959,12.841,12.841,0,0,0,.76-3.91,13.8,13.8,0,0,0-.762-5.51M93.37,68.009a4.948,4.948,0,0,1-4.177,4.049A10.793,10.793,0,0,1,87,72.25c-.921,0-2.328,0-3.325,0V57.959c1.117,0,2.661-.006,3.709.011a7.917,7.917,0,0,1,3.067.57,4.817,4.817,0,0,1,2.911,3.618,13.94,13.94,0,0,1,.008,5.851" transform="translate(-67.43 -45.62)" fill="#94a3c7" opacity="0.997"/>
  </g>
</svg>
