<svg xmlns="http://www.w3.org/2000/svg" width="20" height="20.999" viewBox="0 0 20 20.999">
  <g id="Group_526" data-name="Group 526" transform="translate(15612.752 8998.574)">
    <path id="Path_490" data-name="Path 490" d="M343.773,10.531a.6.6,0,0,1,.588.956l-7.3,9.293A.594.594,0,0,1,336,20.36l.735-7.981a.6.6,0,0,1,.483-.536Z" transform="translate(-15938.994 -9000.143)" fill="#93a2c6"/>
    <path id="Path_491" data-name="Path 491" d="M346.108,7.879a.445.445,0,0,1-.22.735l-8.863,1.775a.6.6,0,0,1-.536-1.008l5.272-5.272a.6.6,0,0,1,.861.011Z" transform="translate(-15938.979 -9000.473)" fill="#93a2c6"/>
    <path id="Path_492" data-name="Path 492" d="M339.169,3.251a.6.6,0,0,1,.347,1.019l-3.738,3.738a.6.6,0,0,1-.819.021l-5.608-4.988A.6.6,0,0,1,329.823,2Z" transform="translate(-15938.855 -9000.57)" fill="#93a2c6"/>
    <path id="Path_493" data-name="Path 493" d="M335.145,10.418a1.221,1.221,0,0,1,.4.987l-.9,10.984a.6.6,0,0,1-1.155.168L326.293,4a.6.6,0,0,1,.956-.662Z" transform="translate(-15939 -9000.512)" fill="#93a2c6"/>
  </g>
</svg>
