<svg xmlns="http://www.w3.org/2000/svg" width="23.072" height="22" viewBox="0 0 23.072 22">
  <g id="Group_525" data-name="Group 525" transform="translate(-7.753 -8.554)">
    <path id="Path_436" data-name="Path 436" d="M116.262,88.9c0-2.42-1.454-3.143-4.245-3.44l-.053-.006c-1.2-.1-1.951-.537-1.951-1.521,0-.958.683-1.521,1.951-1.521a1.752,1.752,0,0,1,1.933,1.281.512.512,0,0,0,.494.387h1.1a.419.419,0,0,0,.418-.456c0-.012,0-.022,0-.03a3.223,3.223,0,0,0-2.843-2.632V79.45a.49.49,0,0,0-.49-.49H111.6a.49.49,0,0,0-.49.49v1.468c-1.838.258-3.087,1.388-3.087,3.154,0,2.078,1.385,2.992,3.924,3.211h.01c1.281.11,2.3.639,2.3,1.765,0,1.02-.927,1.671-2.277,1.671a2.019,2.019,0,0,1-2.225-1.613.476.476,0,0,0-.454-.431h-1.1a.448.448,0,0,0-.426.5c0,.012,0,.023,0,.032a3.566,3.566,0,0,0,3.331,3.049v1.49a.49.49,0,0,0,.49.49h.975a.49.49,0,0,0,.49-.49V92.234c1.884-.319,3.2-1.506,3.2-3.332" transform="translate(-92.798 -67.037)" fill="#94a3c7" opacity="0.997"/>
    <path id="Path_437" data-name="Path 437" d="M53.371,69.629a9.489,9.489,0,0,1,0-17.86.516.516,0,0,0,.344-.484V50.241a.541.541,0,0,0-.706-.516,11.54,11.54,0,0,0,0,21.947.541.541,0,0,0,.706-.516V70.113a.516.516,0,0,0-.344-.484" transform="translate(-37.288 -41.145)" fill="#94a3c7" opacity="0.997"/>
    <path id="Path_438" data-name="Path 438" d="M170.815,49.725a.541.541,0,0,0-.706.516v1.043a.516.516,0,0,0,.344.484,9.489,9.489,0,0,1,0,17.86.516.516,0,0,0-.344.484v1.043a.541.541,0,0,0,.706.516,11.54,11.54,0,0,0,0-21.947" transform="translate(-147.957 -41.145)" fill="#94a3c7" opacity="0.997"/>
  </g>
</svg>
