<svg xmlns="http://www.w3.org/2000/svg" width="19.544" height="18" viewBox="0 0 19.544 18">
  <g id="Group_521" data-name="Group 521" transform="translate(-9.874 -12.204)">
    <path id="Path_393" data-name="Path 393" d="M67.132,124.9c-5.4,0-9.772.979-9.772,2.187s4.375,2.187,9.772,2.187,9.772-.979,9.772-2.187-4.375-2.187-9.772-2.187m.04,3.688c-4.888,0-8.85-.766-8.85-1.711s3.962-1.711,8.85-1.711,8.85.766,8.85,1.711-3.962,1.711-8.85,1.711" transform="translate(-47.486 -106.689)" fill="#94a3c7" opacity="0.997"/>
    <path id="Path_394" data-name="Path 394" d="M127.5,157.644V166h4v-8.355c-.655.031-1.333.047-2.029.047-.676,0-1.335-.015-1.973-.045" transform="translate(-109.83 -135.792)" fill="#94a3c7" opacity="0.997"/>
    <path id="Path_395" data-name="Path 395" d="M77.749,70.9v3.675h5.532v5.286c.646.029,1.32.044,2.013.044s1.35-.015,1.989-.043V74.577h5.477V70.9Z" transform="translate(-65.608 -58.698)" fill="#94a3c7" opacity="0.997"/>
  </g>
</svg>
