<svg xmlns="http://www.w3.org/2000/svg" width="18" height="18" viewBox="0 0 18 18">
  <g id="Component_10_1" data-name="Component 10 – 1" transform="translate(0)">
    <g id="Path_381" data-name="Path 381" transform="translate(0)" fill="none">
      <path d="M3,0H15a3,3,0,0,1,3,3V15a3,3,0,0,1-3,3H3a3,3,0,0,1-3-3V3A3,3,0,0,1,3,0Z" stroke="none"/>
      <path d="M 3 2 C 2.448599815368652 2 2 2.448599815368652 2 3 L 2 15 C 2 15.55140018463135 2.448599815368652 16 3 16 L 15 16 C 15.55140018463135 16 16 15.55140018463135 16 15 L 16 3 C 16 2.448599815368652 15.55140018463135 2 15 2 L 3 2 M 3 0 L 15 0 C 16.65685081481934 0 18 1.343149185180664 18 3 L 18 15 C 18 16.65685081481934 16.65685081481934 18 15 18 L 3 18 C 1.343149185180664 18 0 16.65685081481934 0 15 L 0 3 C 0 1.343149185180664 1.343149185180664 0 3 0 Z" stroke="none" fill="#15b46a"/>
    </g>
    <path id="Path_382" data-name="Path 382" d="M8.937,17.872c-1.558,0-3.116,0-4.673,0A4.193,4.193,0,0,1,.009,13.652q-.018-4.714,0-9.429A4.189,4.189,0,0,1,4.226.009q4.714-.018,9.429,0A4.19,4.19,0,0,1,17.87,4.268q.007,4.632,0,9.265a4.2,4.2,0,0,1-4.342,4.339C12,17.875,10.467,17.873,8.937,17.872Zm-1.059-8.4c-.736-.739-1.437-1.446-2.141-2.149a1.378,1.378,0,0,0-2.123-.018,1.389,1.389,0,0,0,.037,2.126q1.955,1.956,3.911,3.911c.1.1.21.2.319.3,2.178-2.174,4.324-4.315,6.467-6.458a1.246,1.246,0,0,0,.358-1.049,1.5,1.5,0,0,0-1.028-1.31,1.354,1.354,0,0,0-1.532.37C10.742,6.609,9.332,8.018,7.878,9.474Z" transform="translate(0 0.003)" fill="#15b46a"/>
  </g>
</svg>
